<svg width="31" height="30" viewBox="0 0 31 30" fill="none" xmlns="http://www.w3.org/2000/svg">
<path d="M12.0976 12.0976C10.4341 12.0976 9.01016 11.5053 7.82561 10.3207C6.64106 9.13618 6.04878 7.7122 6.04878 6.04878C6.04878 4.38537 6.64106 2.96138 7.82561 1.77683C9.01016 0.592277 10.4341 0 12.0976 0C13.761 0 15.185 0.592277 16.3695 1.77683C17.5541 2.96138 18.1463 4.38537 18.1463 6.04878C18.1463 7.7122 17.5541 9.13618 16.3695 10.3207C15.185 11.5053 13.761 12.0976 12.0976 12.0976ZM12.0976 9.07317C12.9293 9.07317 13.6413 8.77703 14.2335 8.18476C14.8258 7.59248 15.122 6.88049 15.122 6.04878C15.122 5.21707 14.8258 4.50508 14.2335 3.9128C13.6413 3.32053 12.9293 3.02439 12.0976 3.02439C11.2659 3.02439 10.5539 3.32053 9.96159 3.9128C9.36931 4.50508 9.07317 5.21707 9.07317 6.04878C9.07317 6.88049 9.36931 7.59248 9.96159 8.18476C10.5539 8.77703 11.2659 9.07317 12.0976 9.07317ZM28.8829 29.4878L24.0439 24.6488C23.5146 24.9512 22.9476 25.2033 22.3427 25.4049C21.7378 25.6065 21.0951 25.7073 20.4146 25.7073C18.5244 25.7073 16.9177 25.0457 15.5945 23.7226C14.2713 22.3994 13.6098 20.7927 13.6098 18.9024C13.6098 17.0122 14.2713 15.4055 15.5945 14.0823C16.9177 12.7591 18.5244 12.0976 20.4146 12.0976C22.3049 12.0976 23.9116 12.7591 25.2348 14.0823C26.5579 15.4055 27.2195 17.0122 27.2195 18.9024C27.2195 19.5829 27.1187 20.2256 26.9171 20.8305C26.7154 21.4354 26.4634 22.0024 26.161 22.5317L31 27.3707L28.8829 29.4878ZM20.4146 22.6829C21.4732 22.6829 22.3679 22.3175 23.0988 21.5866C23.8297 20.8557 24.1951 19.961 24.1951 18.9024C24.1951 17.8439 23.8297 16.9492 23.0988 16.2183C22.3679 15.4874 21.4732 15.122 20.4146 15.122C19.3561 15.122 18.4614 15.4874 17.7305 16.2183C16.9996 16.9492 16.6341 17.8439 16.6341 18.9024C16.6341 19.961 16.9996 20.8557 17.7305 21.5866C18.4614 22.3175 19.3561 22.6829 20.4146 22.6829ZM0 24.1951V19.9988C0 19.1419 0.214228 18.348 0.642683 17.6171C1.07114 16.8862 1.66341 16.3317 2.41951 15.9537C3.70488 15.2984 5.15407 14.7439 6.76707 14.2902C8.38008 13.8366 10.1695 13.6098 12.1354 13.6098C11.8329 14.0634 11.5746 14.5486 11.3604 15.0652C11.1461 15.5819 10.976 16.1175 10.85 16.672C9.3378 16.798 7.98943 17.0563 6.80488 17.447C5.62033 17.8376 4.6248 18.2472 3.81829 18.6756C3.56626 18.8016 3.37093 18.9844 3.23232 19.2238C3.0937 19.4632 3.02439 19.7215 3.02439 19.9988V21.1707H10.85C10.976 21.7252 11.1461 22.2545 11.3604 22.7585C11.5746 23.2626 11.8329 23.7415 12.1354 24.1951H0Z" fill="#EC5B13"/>
</svg>
