<svg width="50" height="36" viewBox="0 0 50 36" fill="none" xmlns="http://www.w3.org/2000/svg">
<path d="M7.3125 35.375C5.0625 33.0833 3.28125 30.4271 1.96875 27.4062C0.65625 24.3854 0 21.1458 0 17.6875C0 14.1875 0.65625 10.9271 1.96875 7.90625C3.28125 4.88542 5.0625 2.25 7.3125 0L10.875 3.5625C9.04167 5.39583 7.60417 7.52083 6.5625 9.9375C5.52083 12.3542 5 14.9375 5 17.6875C5 20.4792 5.52083 23.0833 6.5625 25.5C7.60417 27.9167 9.04167 30.0208 10.875 31.8125L7.3125 35.375ZM14.375 28.3125C13.0417 26.9375 11.9792 25.3438 11.1875 23.5312C10.3958 21.7188 10 19.7708 10 17.6875C10 15.5625 10.3958 13.5938 11.1875 11.7812C11.9792 9.96875 13.0417 8.39583 14.375 7.0625L17.9375 10.625C17.0208 11.5417 16.3021 12.6042 15.7812 13.8125C15.2604 15.0208 15 16.3125 15 17.6875C15 19.0625 15.2604 20.3542 15.7812 21.5625C16.3021 22.7708 17.0208 23.8333 17.9375 24.75L14.375 28.3125ZM25 22.6875C23.625 22.6875 22.4479 22.1979 21.4688 21.2188C20.4896 20.2396 20 19.0625 20 17.6875C20 16.3125 20.4896 15.1354 21.4688 14.1562C22.4479 13.1771 23.625 12.6875 25 12.6875C26.375 12.6875 27.5521 13.1771 28.5312 14.1562C29.5104 15.1354 30 16.3125 30 17.6875C30 19.0625 29.5104 20.2396 28.5312 21.2188C27.5521 22.1979 26.375 22.6875 25 22.6875ZM35.625 28.3125L32.0625 24.75C32.9792 23.8333 33.6979 22.7708 34.2188 21.5625C34.7396 20.3542 35 19.0625 35 17.6875C35 16.3125 34.7396 15.0208 34.2188 13.8125C33.6979 12.6042 32.9792 11.5417 32.0625 10.625L35.625 7.0625C36.9583 8.39583 38.0208 9.96875 38.8125 11.7812C39.6042 13.5938 40 15.5625 40 17.6875C40 19.7708 39.6042 21.7188 38.8125 23.5312C38.0208 25.3438 36.9583 26.9375 35.625 28.3125ZM42.6875 35.375L39.125 31.8125C40.9583 29.9792 42.3958 27.8542 43.4375 25.4375C44.4792 23.0208 45 20.4375 45 17.6875C45 14.8958 44.4792 12.2917 43.4375 9.875C42.3958 7.45833 40.9583 5.35417 39.125 3.5625L42.6875 0C44.9375 2.25 46.7188 4.88542 48.0312 7.90625C49.3438 10.9271 50 14.1875 50 17.6875C50 21.1458 49.3438 24.3854 48.0312 27.4062C46.7188 30.4271 44.9375 33.0833 42.6875 35.375Z" fill="#EC5B13"/>
</svg>
