<svg width="22" height="18" viewBox="0 0 22 18" fill="none" xmlns="http://www.w3.org/2000/svg">
<path d="M1.5 16C1.08333 16 0.729167 15.8542 0.4375 15.5625C0.145833 15.2708 0 14.9167 0 14.5V5.5C0 5.08333 0.145833 4.72917 0.4375 4.4375C0.729167 4.14583 1.08333 4 1.5 4H6.5C6.91667 4 7.27083 4.14583 7.5625 4.4375C7.85417 4.72917 8 5.08333 8 5.5V14.5C8 14.9167 7.85417 15.2708 7.5625 15.5625C7.27083 15.8542 6.91667 16 6.5 16H1.5ZM15.5 3.5C14.45 3.5 13.4583 3.67917 12.525 4.0375C11.5917 4.39583 10.75 4.89167 10 5.525V5.5C10 4.53333 9.65833 3.70833 8.975 3.025C8.29167 2.34167 7.46667 2 6.5 2H1.475C1.39167 2 1.3125 2.00417 1.2375 2.0125C1.1625 2.02083 1.08333 2.03333 1 2.05V2C1 1.45 1.19583 0.979167 1.5875 0.5875C1.97917 0.195833 2.45 0 3 0H18C18.55 0 19.0208 0.195833 19.4125 0.5875C19.8042 0.979167 20 1.45 20 2V4.8C19.3 4.38333 18.5792 4.0625 17.8375 3.8375C17.0958 3.6125 16.3167 3.5 15.5 3.5ZM10.9 16.6C10.3167 15.9667 9.85417 15.2542 9.5125 14.4625C9.17083 13.6708 9 12.85 9 12C9 10.1833 9.63333 8.64583 10.9 7.3875C12.1667 6.12917 13.7 5.5 15.5 5.5C17.3167 5.5 18.8542 6.12917 20.1125 7.3875C21.3708 8.64583 22 10.1833 22 12C22 12.85 21.8417 13.6708 21.525 14.4625C21.2083 15.2542 20.7417 15.9583 20.125 16.575L19.05 15.5C19.5333 15.0167 19.8958 14.475 20.1375 13.875C20.3792 13.275 20.5 12.65 20.5 12C20.5 10.6 20.0167 9.41667 19.05 8.45C18.0833 7.48333 16.9 7 15.5 7C14.1167 7 12.9375 7.48333 11.9625 8.45C10.9875 9.41667 10.5 10.6 10.5 12C10.5 12.65 10.6292 13.2792 10.8875 13.8875C11.1458 14.4958 11.5083 15.0417 11.975 15.525L10.9 16.6ZM12.675 14.825C12.3083 14.4417 12.0208 14.0083 11.8125 13.525C11.6042 13.0417 11.5 12.5333 11.5 12C11.5 10.8833 11.8917 9.9375 12.675 9.1625C13.4583 8.3875 14.4 8 15.5 8C16.6167 8 17.5625 8.3875 18.3375 9.1625C19.1125 9.9375 19.5 10.8833 19.5 12C19.5 12.5167 19.4042 13.0167 19.2125 13.5C19.0208 13.9833 18.7333 14.4167 18.35 14.8L17.275 13.75C17.5083 13.5167 17.6875 13.25 17.8125 12.95C17.9375 12.65 18 12.3333 18 12C18 11.3 17.7583 10.7083 17.275 10.225C16.7917 9.74167 16.2 9.5 15.5 9.5C14.8 9.5 14.2083 9.74167 13.725 10.225C13.2417 10.7083 13 11.3 13 12C13 12.3333 13.0667 12.65 13.2 12.95C13.3333 13.25 13.5167 13.5167 13.75 13.75L12.675 14.825ZM14.75 18V13C14.6 12.8667 14.4792 12.7125 14.3875 12.5375C14.2958 12.3625 14.25 12.1833 14.25 12C14.25 11.65 14.375 11.3542 14.625 11.1125C14.875 10.8708 15.1667 10.75 15.5 10.75C15.85 10.75 16.1458 10.8708 16.3875 11.1125C16.6292 11.3542 16.75 11.65 16.75 12C16.75 12.1833 16.7125 12.3667 16.6375 12.55C16.5625 12.7333 16.4333 12.8833 16.25 13V18H14.75ZM4 8.525C4.21667 8.525 4.39583 8.45 4.5375 8.3C4.67917 8.15 4.75 7.975 4.75 7.775C4.75 7.55833 4.67917 7.37917 4.5375 7.2375C4.39583 7.09583 4.21667 7.025 4 7.025C3.8 7.025 3.625 7.09583 3.475 7.2375C3.325 7.37917 3.25 7.55833 3.25 7.775C3.25 7.975 3.325 8.15 3.475 8.3C3.625 8.45 3.8 8.525 4 8.525Z" fill="#EC5B13"/>
</svg>
