<svg width="20" height="20" viewBox="0 0 20 20" fill="none" xmlns="http://www.w3.org/2000/svg">
<path d="M2.9 14.2C1.95 13.2 1.22917 12.0917 0.7375 10.875C0.245833 9.65833 0 8.4 0 7.1C0 5.8 0.245833 4.54167 0.7375 3.325C1.22917 2.10833 1.95 1 2.9 0L4.1 1.2C3.3 2 2.7 2.92083 2.3 3.9625C1.9 5.00417 1.7 6.05 1.7 7.1C1.7 8.15 1.9 9.19583 2.3 10.2375C2.7 11.2792 3.3 12.2 4.1 13L2.9 14.2ZM5.3 11.8C4.65 11.15 4.15417 10.4167 3.8125 9.6C3.47083 8.78333 3.3 7.95 3.3 7.1C3.3 6.25 3.47083 5.41667 3.8125 4.6C4.15417 3.78333 4.65 3.05 5.3 2.4L6.5 3.6C6 4.05 5.625 4.58333 5.375 5.2C5.125 5.81667 5 6.45 5 7.1C5 7.7 5.125 8.30833 5.375 8.925C5.625 9.54167 6 10.1 6.5 10.6L5.3 11.8ZM5 19.1L8.375 8.975C8.10833 8.74167 7.89583 8.46667 7.7375 8.15C7.57917 7.83333 7.5 7.48333 7.5 7.1C7.5 6.4 7.74167 5.80833 8.225 5.325C8.70833 4.84167 9.3 4.6 10 4.6C10.7 4.6 11.2917 4.84167 11.775 5.325C12.2583 5.80833 12.5 6.4 12.5 7.1C12.5 7.48333 12.4208 7.83333 12.2625 8.15C12.1042 8.46667 11.8917 8.74167 11.625 8.975L15 19.1H13L12.35 17.1H7.675L7 19.1H5ZM8.325 15.1H11.675L10 10.1L8.325 15.1ZM14.7 11.8L13.5 10.6C14 10.15 14.375 9.61667 14.625 9C14.875 8.38333 15 7.75 15 7.1C15 6.5 14.875 5.89167 14.625 5.275C14.375 4.65833 14 4.1 13.5 3.6L14.7 2.4C15.35 3.05 15.8333 3.78333 16.15 4.6C16.4667 5.41667 16.65 6.25 16.7 7.1C16.7 7.95 16.5292 8.78333 16.1875 9.6C15.8458 10.4167 15.35 11.15 14.7 11.8ZM17.1 14.2L15.9 13C16.7 12.2 17.3 11.2792 17.7 10.2375C18.1 9.19583 18.3 8.15 18.3 7.1C18.3 6.05 18.1 5.00417 17.7 3.9625C17.3 2.92083 16.7 2 15.9 1.2L17.1 0C18.05 1 18.7708 2.10833 19.2625 3.325C19.7542 4.54167 20 5.8 20 7.1C20 8.4 19.7667 9.65833 19.3 10.875C18.8333 12.0917 18.1 13.2 17.1 14.2Z" fill="#EC5B13"/>
</svg>
