<svg width="80" height="80" viewBox="0 0 80 80" fill="none" xmlns="http://www.w3.org/2000/svg">
<g filter="url(#filter0_f_1001_271)">
<rect x="-16" y="-16" width="112" height="112" rx="56" fill="#EC5B13" fill-opacity="0.1"/>
</g>
<rect width="80" height="80" rx="16" fill="#1A0F0A"/>
<rect x="0.5" y="0.5" width="79" height="79" rx="15.5" stroke="#EC5B13" stroke-opacity="0.3"/>
<path d="M29.3875 50.6125C28.0375 49.2375 26.9688 47.6437 26.1812 45.8312C25.3937 44.0187 25 42.075 25 40C25 37.9 25.3937 35.9437 26.1812 34.1312C26.9688 32.3187 28.0375 30.7375 29.3875 29.3875L31.525 31.525C30.425 32.625 29.5625 33.9 28.9375 35.35C28.3125 36.8 28 38.35 28 40C28 41.675 28.3125 43.2375 28.9375 44.6875C29.5625 46.1375 30.425 47.4 31.525 48.475L29.3875 50.6125ZM33.625 46.375C32.825 45.55 32.1875 44.5937 31.7125 43.5062C31.2375 42.4187 31 41.25 31 40C31 38.725 31.2375 37.5437 31.7125 36.4562C32.1875 35.3687 32.825 34.425 33.625 33.625L35.7625 35.7625C35.2125 36.3125 34.7812 36.95 34.4688 37.675C34.1562 38.4 34 39.175 34 40C34 40.825 34.1562 41.6 34.4688 42.325C34.7812 43.05 35.2125 43.6875 35.7625 44.2375L33.625 46.375ZM40 43C39.175 43 38.4688 42.7062 37.8813 42.1187C37.2938 41.5312 37 40.825 37 40C37 39.175 37.2938 38.4687 37.8813 37.8812C38.4688 37.2937 39.175 37 40 37C40.825 37 41.5312 37.2937 42.1187 37.8812C42.7062 38.4687 43 39.175 43 40C43 40.825 42.7062 41.5312 42.1187 42.1187C41.5312 42.7062 40.825 43 40 43ZM46.375 46.375L44.2375 44.2375C44.7875 43.6875 45.2188 43.05 45.5312 42.325C45.8438 41.6 46 40.825 46 40C46 39.175 45.8438 38.4 45.5312 37.675C45.2188 36.95 44.7875 36.3125 44.2375 35.7625L46.375 33.625C47.175 34.425 47.8125 35.3687 48.2875 36.4562C48.7625 37.5437 49 38.725 49 40C49 41.25 48.7625 42.4187 48.2875 43.5062C47.8125 44.5937 47.175 45.55 46.375 46.375ZM50.6125 50.6125L48.475 48.475C49.575 47.375 50.4375 46.1 51.0625 44.65C51.6875 43.2 52 41.65 52 40C52 38.325 51.6875 36.7625 51.0625 35.3125C50.4375 33.8625 49.575 32.6 48.475 31.525L50.6125 29.3875C51.9625 30.7375 53.0312 32.3187 53.8188 34.1312C54.6063 35.9437 55 37.9 55 40C55 42.075 54.6063 44.0187 53.8188 45.8312C53.0312 47.6437 51.9625 49.2375 50.6125 50.6125Z" fill="#EC5B13"/>
<defs>
<filter id="filter0_f_1001_271" x="-40" y="-40" width="160" height="160" filterUnits="userSpaceOnUse" color-interpolation-filters="sRGB">
<feFlood flood-opacity="0" result="BackgroundImageFix"/>
<feBlend mode="normal" in="SourceGraphic" in2="BackgroundImageFix" result="shape"/>
<feGaussianBlur stdDeviation="12" result="effect1_foregroundBlur_1001_271"/>
</filter>
</defs>
</svg>
