<svg width="48" height="48" viewBox="0 0 48 48" fill="none" xmlns="http://www.w3.org/2000/svg">
<path d="M44.5 34V31H42L45.5 26V29H48L44.5 34ZM36 34C35.7167 34 35.4792 33.9042 35.2875 33.7125C35.0958 33.5208 35 33.2833 35 33V17C35 16.7167 35.0958 16.4792 35.2875 16.2875C35.4792 16.0958 35.7167 16 36 16H38V14H42V16H44C44.2833 16 44.5208 16.0958 44.7125 16.2875C44.9042 16.4792 45 16.7167 45 17V24C44.65 24 44.3083 24.0292 43.975 24.0875C43.6417 24.1458 43.3167 24.2333 43 24.35V18H37V32H39.35C39.4833 32.3833 39.6458 32.7417 39.8375 33.075C40.0292 33.4083 40.2583 33.7167 40.525 34H36Z" fill="#F1F5F9"/>
</svg>
