<svg width="13" height="10" viewBox="0 0 13 10" fill="none" xmlns="http://www.w3.org/2000/svg">
<path d="M5.525 7.68181L8.86363 4.34318L8.00681 3.48636L5.51022 5.98295L4.26931 4.74204L3.42727 5.58409L5.525 7.68181ZM3.25 9.45454C2.35379 9.45454 1.58807 9.14431 0.95284 8.52386C0.317613 7.9034 0 7.14507 0 6.24886C0 5.48068 0.231439 4.79621 0.694318 4.19545C1.1572 3.59469 1.76288 3.2106 2.51136 3.04318C2.75757 2.13712 3.25 1.40341 3.98863 0.842045C4.72727 0.280682 5.56439 0 6.49999 0C7.65227 0 8.62973 0.401325 9.43238 1.20398C10.235 2.00663 10.6364 2.98409 10.6364 4.13636C11.3159 4.21515 11.8797 4.50814 12.3278 5.01534C12.7759 5.52253 13 6.1159 13 6.79545C13 7.53408 12.7415 8.16192 12.2244 8.67897C11.7074 9.19602 11.0795 9.45454 10.3409 9.45454H3.25ZM3.25 8.27272H10.3409C10.7545 8.27272 11.1042 8.12992 11.3898 7.84431C11.6754 7.55871 11.8182 7.20909 11.8182 6.79545C11.8182 6.38181 11.6754 6.03219 11.3898 5.74659C11.1042 5.46098 10.7545 5.31818 10.3409 5.31818H9.45454V4.13636C9.45454 3.31894 9.16647 2.62216 8.59033 2.04602C8.0142 1.46989 7.31742 1.18182 6.49999 1.18182C5.68257 1.18182 4.98579 1.46989 4.40966 2.04602C3.83352 2.62216 3.54545 3.31894 3.54545 4.13636H3.25C2.67879 4.13636 2.19129 4.33825 1.7875 4.74204C1.38371 5.14583 1.18182 5.63333 1.18182 6.20454C1.18182 6.77575 1.38371 7.26325 1.7875 7.66704C2.19129 8.07083 2.67879 8.27272 3.25 8.27272Z" fill="#00F2FF"/>
</svg>
