<svg width="45" height="69" viewBox="0 0 45 69" fill="none" xmlns="http://www.w3.org/2000/svg">
<path d="M22.3315 62.9376C26.0989 59.3712 29.05 55.9429 31.1848 52.6528C33.3196 49.3626 34.387 46.5874 34.387 44.327C34.387 40.861 33.2191 37.9099 30.8834 35.4737C28.5476 33.0375 25.697 31.8194 22.3315 31.8194C18.966 31.8194 16.1154 33.0375 13.7797 35.4737C11.4439 37.9099 10.2761 40.861 10.2761 44.327C10.2761 46.5874 11.3435 49.3626 13.4783 52.6528C15.6131 55.9429 18.5642 59.3712 22.3315 62.9376ZM22.3315 69C16.7946 64.174 12.6476 59.7102 9.89071 55.6086C7.13381 51.5071 5.75536 47.7465 5.75536 44.327C5.75536 39.6285 7.35599 35.6158 10.5572 32.289C13.7585 28.9621 17.6833 27.2987 22.3315 27.2987C26.9798 27.2987 30.9046 28.9621 34.1058 32.289C37.3071 35.6158 38.9077 39.6285 38.9077 44.327C38.9077 47.8625 37.5051 51.652 34.6999 55.6956C31.8947 59.7391 27.7719 64.174 22.3315 69ZM22.3315 47.8161C23.4327 47.8161 24.3649 47.4345 25.128 46.6714C25.8911 45.9083 26.2727 44.9761 26.2727 43.8749C26.2727 42.7737 25.8911 41.8415 25.128 41.0784C24.3649 40.3153 23.4327 39.9337 22.3315 39.9337C21.2303 39.9337 20.2982 40.3153 19.535 41.0784C18.7719 41.8415 18.3904 42.7737 18.3904 43.8749C18.3904 44.9761 18.7719 45.9083 19.535 46.6714C20.2982 47.4345 21.2303 47.8161 22.3315 47.8161ZM11.6613 20.6565L8.51418 17.5094C10.4075 15.7513 12.5385 14.4028 14.907 13.4639C17.2756 12.5249 19.7504 12.0555 22.3315 12.0555C24.9126 12.0555 27.3875 12.5249 29.756 13.4639C32.1246 14.4028 34.2556 15.7513 36.1489 17.5094L33.0018 20.6565C31.5258 19.2964 29.871 18.2763 28.0376 17.5962C26.2042 16.9162 24.3021 16.5762 22.3315 16.5762C20.3609 16.5762 18.4589 16.9162 16.6255 17.5962C14.792 18.2763 13.1373 19.2964 11.6613 20.6565ZM3.19346 12.1423L0 8.96621C3.04864 6.05282 6.49043 3.8301 10.3254 2.29806C14.1603 0.766021 18.1624 0 22.3315 0C26.52 0 30.5317 0.766021 34.3667 2.29806C38.2016 3.8301 41.6434 6.06248 44.6921 8.99519L41.516 12.2176C38.9155 9.73313 35.9674 7.82918 32.6714 6.50578C29.3755 5.18239 25.9289 4.52069 22.3315 4.52069C18.7535 4.52069 15.3195 5.16983 12.0293 6.46811C8.73918 7.76639 5.79389 9.65778 3.19346 12.1423Z" fill="white"/>
</svg>
