<svg width="48" height="36" viewBox="0 0 48 36" fill="none" xmlns="http://www.w3.org/2000/svg">
<path d="M27.1999 28L26.7999 24.8C26.5832 24.7167 26.3791 24.6167 26.1874 24.5C25.9957 24.3833 25.8082 24.2583 25.6249 24.125L22.6499 25.375L19.8999 20.625L22.4749 18.675C22.4582 18.5583 22.4499 18.4458 22.4499 18.3375C22.4499 18.2292 22.4499 18.1167 22.4499 18C22.4499 17.8833 22.4499 17.7708 22.4499 17.6625C22.4499 17.5542 22.4582 17.4417 22.4749 17.325L19.8999 15.375L22.6499 10.625L25.6249 11.875C25.8082 11.7417 25.9999 11.6167 26.1999 11.5C26.3999 11.3833 26.5999 11.2833 26.7999 11.2L27.1999 8H32.6999L33.0999 11.2C33.3166 11.2833 33.5207 11.3833 33.7124 11.5C33.9041 11.6167 34.0916 11.7417 34.2749 11.875L37.2499 10.625L39.9999 15.375L37.4249 17.325C37.4416 17.4417 37.4499 17.5542 37.4499 17.6625C37.4499 17.7708 37.4499 17.8833 37.4499 18C37.4499 18.1167 37.4499 18.2292 37.4499 18.3375C37.4499 18.4458 37.4332 18.5583 37.3999 18.675L39.9749 20.625L37.2249 25.375L34.2749 24.125C34.0916 24.2583 33.8999 24.3833 33.6999 24.5C33.4999 24.6167 33.2999 24.7167 33.0999 24.8L32.6999 28H27.1999ZM28.9499 26H30.9249L31.2749 23.35C31.7916 23.2167 32.2707 23.0208 32.7124 22.7625C33.1541 22.5042 33.5582 22.1917 33.9249 21.825L36.3999 22.85L37.3749 21.15L35.2249 19.525C35.3082 19.2917 35.3666 19.0458 35.3999 18.7875C35.4332 18.5292 35.4499 18.2667 35.4499 18C35.4499 17.7333 35.4332 17.4708 35.3999 17.2125C35.3666 16.9542 35.3082 16.7083 35.2249 16.475L37.3749 14.85L36.3999 13.15L33.9249 14.2C33.5582 13.8167 33.1541 13.4958 32.7124 13.2375C32.2707 12.9792 31.7916 12.7833 31.2749 12.65L30.9499 10H28.9749L28.6249 12.65C28.1082 12.7833 27.6291 12.9792 27.1874 13.2375C26.7457 13.4958 26.3416 13.8083 25.9749 14.175L23.4999 13.15L22.5249 14.85L24.6749 16.45C24.5916 16.7 24.5332 16.95 24.4999 17.2C24.4666 17.45 24.4499 17.7167 24.4499 18C24.4499 18.2667 24.4666 18.525 24.4999 18.775C24.5332 19.025 24.5916 19.275 24.6749 19.525L22.5249 21.15L23.4999 22.85L25.9749 21.8C26.3416 22.1833 26.7457 22.5042 27.1874 22.7625C27.6291 23.0208 28.1082 23.2167 28.6249 23.35L28.9499 26ZM29.9999 21.5C30.9666 21.5 31.7916 21.1583 32.4749 20.475C33.1582 19.7917 33.4999 18.9667 33.4999 18C33.4999 17.0333 33.1582 16.2083 32.4749 15.525C31.7916 14.8417 30.9666 14.5 29.9999 14.5C29.0166 14.5 28.1874 14.8417 27.5124 15.525C26.8374 16.2083 26.4999 17.0333 26.4999 18C26.4999 18.9667 26.8374 19.7917 27.5124 20.475C28.1874 21.1583 29.0166 21.5 29.9999 21.5Z" fill="#F1F5F9"/>
</svg>
